<?xml version="1.0" encoding="UTF-8" standalone="no"?>
<svg
   xmlns:dc="http://purl.org/dc/elements/1.1/"
   xmlns:cc="http://creativecommons.org/ns#"
   xmlns:rdf="http://www.w3.org/1999/02/22-rdf-syntax-ns#"
   xmlns:svg="http://www.w3.org/2000/svg"
   xmlns="http://www.w3.org/2000/svg"
   xmlns:sodipodi="http://sodipodi.sourceforge.net/DTD/sodipodi-0.dtd"
   xmlns:inkscape="http://www.inkscape.org/namespaces/inkscape"
   version="1.1"
   id="Capa_1"
   x="0px"
   y="0px"
   viewBox="0 0 511 511"
   style="enable-background:new 0 0 511 511;"
   xml:space="preserve"
   sodipodi:docname="front-heart-color.svg"
   inkscape:version="1.0.2 (e86c870879, 2021-01-15)"><metadata
   id="metadata129"><rdf:RDF><cc:Work
       rdf:about=""><dc:format>image/svg+xml</dc:format><dc:type
         rdf:resource="http://purl.org/dc/dcmitype/StillImage" /><dc:title></dc:title></cc:Work></rdf:RDF></metadata><defs
   id="defs127" /><sodipodi:namedview
   pagecolor="#ffffff"
   bordercolor="#666666"
   borderopacity="1"
   objecttolerance="10"
   gridtolerance="10"
   guidetolerance="10"
   inkscape:pageopacity="0"
   inkscape:pageshadow="2"
   inkscape:window-width="744"
   inkscape:window-height="480"
   id="namedview125"
   showgrid="false"
   inkscape:zoom="1.6634051"
   inkscape:cx="255.5"
   inkscape:cy="255.5"
   inkscape:window-x="0"
   inkscape:window-y="0"
   inkscape:window-maximized="0"
   inkscape:current-layer="Capa_1" />
<g
   id="g92"
   style="fill:#d40000">
	<path
   d="M 367.5,28 C 323.801,28 282.658,47.961 255.5,81.867 228.342,47.961 187.199,28 143.5,28 64.374,28 0,92.374 0,171.5 c 0,38.869 13.438,79.492 39.94,120.741 20.935,32.584 50.057,65.673 86.558,98.347 61.891,55.402 124.688,91.089 125.315,91.443 1.144,0.646 2.416,0.969 3.687,0.969 1.271,0 2.543,-0.323 3.687,-0.969 0.627,-0.354 63.425,-36.041 125.315,-91.443 36.5,-32.674 65.623,-65.762 86.558,-98.347 C 497.562,250.992 511,210.369 511,171.5 511,92.374 446.626,28 367.5,28 Z m 91.015,256.017 c -20.171,31.425 -48.371,63.459 -83.814,95.213 -52.179,46.747 -105.016,79.187 -119.202,87.589 C 241.338,458.436 188.666,426.108 136.502,379.412 101.007,347.639 72.765,315.582 52.56,284.134 27.637,245.342 15,207.447 15,171.5 15,100.645 72.645,43 143.5,43 c 42.223,0 81.784,20.816 105.826,55.684 1.399,2.03 3.708,3.243 6.174,3.243 2.466,0 4.775,-1.212 6.174,-3.243 C 285.716,63.816 325.277,43 367.5,43 438.355,43 496,100.645 496,171.5 c 0,35.91 -12.612,73.767 -37.485,112.517 z"
   id="path88"
   style="fill:#d40000" />
	<path
   d="m 470.493,128.798 c -0.033,-0.084 -0.067,-0.168 -0.103,-0.251 C 459.08,101.555 437.447,79.922 410.455,68.611 410.37,68.574 410.285,68.539 410.2,68.507 397.041,63.03 382.619,60 367.5,60 c -14.687,0 -29.001,2.911 -42.229,8.341 -0.458,0.142 -0.904,0.329 -1.333,0.561 -19.21,8.179 -36.049,21.71 -48.268,39.432 -4.574,6.633 -12.114,10.593 -20.17,10.593 -8.056,0 -15.597,-3.96 -20.17,-10.593 C 214.461,78.069 180.133,60 143.5,60 82.019,60 32,110.019 32,171.5 c 0,75.365 62.531,147.358 114.988,194.481 41.25,37.056 83.192,65.07 104.522,78.472 1.219,0.766 2.604,1.149 3.99,1.149 1.386,0 2.771,-0.383 3.99,-1.149 10.375,-6.519 25.633,-16.503 43.31,-29.295 0.966,-0.365 1.874,-0.929 2.651,-1.707 0.2,-0.2 0.384,-0.41 0.556,-0.626 13.552,-9.906 28.395,-21.391 43.488,-34.186 0.037,-0.03 0.073,-0.063 0.109,-0.093 4.79,-4.062 9.602,-8.25 14.407,-12.565 27.378,-24.594 48.514,-47.702 64.747,-69.138 0.014,-0.014 0.03,-0.026 0.044,-0.04 0.515,-0.515 0.933,-1.087 1.267,-1.694 C 469.106,242.931 479,200.792 479,171.5 c 0,-15.119 -3.031,-29.542 -8.507,-42.702 z M 451.547,228.94 313.917,91.311 c 3.823,-2.559 7.819,-4.842 11.959,-6.828 l 130.735,130.735 c -1.433,4.42 -3.113,8.996 -5.064,13.722 z M 438.302,255.695 292.938,110.332 c 2.832,-3.448 5.881,-6.675 9.119,-9.668 l 142.824,142.825 c -1.998,3.977 -4.184,8.045 -6.579,12.206 z M 341.26,78.653 c 5.117,-1.452 10.375,-2.477 15.722,-3.065 l 106.545,106.545 c -0.445,5.111 -1.228,10.563 -2.438,16.349 z m 36.943,-3.056 c 8.76,0.971 17.17,3.117 25.068,6.28 l 53.853,53.853 c 3.163,7.898 5.309,16.308 6.28,25.068 z m -94.618,46.595 146.645,146.644 c -2.384,3.657 -4.922,7.377 -7.627,11.16 L 272.614,130.008 c 4.055,-1.95 7.773,-4.581 10.971,-7.816 z M 405.109,302.502 263,160.394 v -18.787 l 150.52,150.52 c -2.67,3.412 -5.471,6.871 -8.411,10.375 z M 386.214,323.607 263,200.394 v -18.787 l 132.246,132.246 c -2.892,3.215 -5.905,6.468 -9.032,9.754 z M 366.182,343.575 263,240.394 v -18.787 l 112.717,112.717 c -3.078,3.056 -6.249,6.138 -9.535,9.251 z M 323.337,380.73 263,320.394 v -18.787 l 70.7,70.7 c -3.48,2.882 -6.938,5.692 -10.363,8.423 z M 300.711,398.104 263,360.394 v -18.787 l 48.432,48.432 c -3.642,2.789 -7.219,5.477 -10.721,8.065 z M 277.355,414.749 263,400.394 v -18.787 l 25.414,25.415 c -3.832,2.723 -7.53,5.304 -11.059,7.727 z m -14.355,6.857 1.672,1.672 c -0.567,0.374 -1.12,0.736 -1.672,1.098 z M 47,171.5 C 47,118.29 90.29,75 143.5,75 c 31.7,0 61.413,15.645 79.481,41.849 5.93,8.6 14.957,14.405 25.019,16.351 v 30.297 c 0,10e-4 0,0.003 0,0.005 v 39.995 c 0,10e-4 0,0.003 0,0.005 v 39.995 c 0,10e-4 0,0.003 0,0.005 v 39.995 c 0,10e-4 0,0.003 0,0.005 v 39.995 c 0,10e-4 0,0.003 0,0.005 v 39.995 c 0,0.002 0,0.004 0,0.005 v 39.995 c 0,10e-4 0,0.003 0,0.005 v 20.873 C 225.442,409.601 190.98,385.336 157.013,354.822 66.086,273.142 47,210.047 47,171.5 Z M 345.186,362.579 263,280.394 v -18.787 l 92.157,92.156 c -0.392,0.354 -0.775,0.705 -1.169,1.06 -2.934,2.634 -5.87,5.217 -8.802,7.756 z"
   id="path90"
   style="fill:#d40000" />
</g>
<g
   id="g94">
</g>
<g
   id="g96">
</g>
<g
   id="g98">
</g>
<g
   id="g100">
</g>
<g
   id="g102">
</g>
<g
   id="g104">
</g>
<g
   id="g106">
</g>
<g
   id="g108">
</g>
<g
   id="g110">
</g>
<g
   id="g112">
</g>
<g
   id="g114">
</g>
<g
   id="g116">
</g>
<g
   id="g118">
</g>
<g
   id="g120">
</g>
<g
   id="g122">
</g>
</svg>
