<?xml version="1.0" encoding="UTF-8" standalone="no"?>
<svg
   xmlns:dc="http://purl.org/dc/elements/1.1/"
   xmlns:cc="http://creativecommons.org/ns#"
   xmlns:rdf="http://www.w3.org/1999/02/22-rdf-syntax-ns#"
   xmlns:svg="http://www.w3.org/2000/svg"
   xmlns="http://www.w3.org/2000/svg"
   xmlns:sodipodi="http://sodipodi.sourceforge.net/DTD/sodipodi-0.dtd"
   xmlns:inkscape="http://www.inkscape.org/namespaces/inkscape"
   version="1.1"
   id="Capa_1"
   x="0px"
   y="0px"
   viewBox="0 0 511 511"
   style="enable-background:new 0 0 511 511;"
   xml:space="preserve"
   sodipodi:docname="front-heart.svg"
   inkscape:version="1.0.2 (e86c870879, 2021-01-15)"><metadata
   id="metadata129"><rdf:RDF><cc:Work
       rdf:about=""><dc:format>image/svg+xml</dc:format><dc:type
         rdf:resource="http://purl.org/dc/dcmitype/StillImage" /></cc:Work></rdf:RDF></metadata><defs
   id="defs127" /><sodipodi:namedview
   pagecolor="#ffffff"
   bordercolor="#666666"
   borderopacity="1"
   objecttolerance="10"
   gridtolerance="10"
   guidetolerance="10"
   inkscape:pageopacity="0"
   inkscape:pageshadow="2"
   inkscape:window-width="744"
   inkscape:window-height="480"
   id="namedview125"
   showgrid="false"
   inkscape:zoom="1.6634051"
   inkscape:cx="255.5"
   inkscape:cy="255.5"
   inkscape:window-x="0"
   inkscape:window-y="0"
   inkscape:window-maximized="0"
   inkscape:current-layer="Capa_1" />
<g
   id="g92">
	<path
   d="M367.5,28c-43.699,0-84.842,19.961-112,53.867C228.342,47.961,187.199,28,143.5,28C64.374,28,0,92.374,0,171.5   c0,38.869,13.438,79.492,39.94,120.741c20.935,32.584,50.057,65.673,86.558,98.347c61.891,55.402,124.688,91.089,125.315,91.443   c1.144,0.646,2.416,0.969,3.687,0.969s2.543-0.323,3.687-0.969c0.627-0.354,63.425-36.041,125.315-91.443   c36.5-32.674,65.623-65.762,86.558-98.347C497.562,250.992,511,210.369,511,171.5C511,92.374,446.626,28,367.5,28z    M458.515,284.017c-20.171,31.425-48.371,63.459-83.814,95.213c-52.179,46.747-105.016,79.187-119.202,87.589   c-14.161-8.383-66.833-40.711-118.997-87.407c-35.495-31.773-63.737-63.83-83.942-95.278C27.637,245.342,15,207.447,15,171.5   C15,100.645,72.645,43,143.5,43c42.223,0,81.784,20.816,105.826,55.684c1.399,2.03,3.708,3.243,6.174,3.243   s4.775-1.212,6.174-3.243C285.716,63.816,325.277,43,367.5,43C438.355,43,496,100.645,496,171.5   C496,207.41,483.388,245.267,458.515,284.017z"
   id="path88" />
	<path
   d="M470.493,128.798c-0.033-0.084-0.067-0.168-0.103-0.251c-11.31-26.992-32.943-48.625-59.935-59.936   c-0.085-0.037-0.17-0.072-0.255-0.104C397.041,63.03,382.619,60,367.5,60c-14.687,0-29.001,2.911-42.229,8.341   c-0.458,0.142-0.904,0.329-1.333,0.561c-19.21,8.179-36.049,21.71-48.268,39.432c-4.574,6.633-12.114,10.593-20.17,10.593   s-15.597-3.96-20.17-10.593C214.461,78.069,180.133,60,143.5,60C82.019,60,32,110.019,32,171.5   c0,75.365,62.531,147.358,114.988,194.481c41.25,37.056,83.192,65.07,104.522,78.472c1.219,0.766,2.604,1.149,3.99,1.149   s2.771-0.383,3.99-1.149c10.375-6.519,25.633-16.503,43.31-29.295c0.966-0.365,1.874-0.929,2.651-1.707   c0.2-0.2,0.384-0.41,0.556-0.626c13.552-9.906,28.395-21.391,43.488-34.186c0.037-0.03,0.073-0.063,0.109-0.093   c4.79-4.062,9.602-8.25,14.407-12.565c27.378-24.594,48.514-47.702,64.747-69.138c0.014-0.014,0.03-0.026,0.044-0.04   c0.515-0.515,0.933-1.087,1.267-1.694C469.106,242.931,479,200.792,479,171.5C479,156.381,475.969,141.958,470.493,128.798z    M451.547,228.94L313.917,91.311c3.823-2.559,7.819-4.842,11.959-6.828l130.735,130.735   C455.178,219.638,453.498,224.214,451.547,228.94z M438.302,255.695L292.938,110.332c2.832-3.448,5.881-6.675,9.119-9.668   l142.824,142.825C442.883,247.466,440.697,251.534,438.302,255.695z M341.26,78.653c5.117-1.452,10.375-2.477,15.722-3.065   l106.545,106.545c-0.445,5.111-1.228,10.563-2.438,16.349L341.26,78.653z M378.203,75.597c8.76,0.971,17.17,3.117,25.068,6.28   l53.853,53.853c3.163,7.898,5.309,16.308,6.28,25.068L378.203,75.597z M283.585,122.192L430.23,268.836   c-2.384,3.657-4.922,7.377-7.627,11.16L272.614,130.008C276.669,128.058,280.387,125.427,283.585,122.192z M405.109,302.502   L263,160.394v-18.787l150.52,150.52C410.85,295.539,408.049,298.998,405.109,302.502z M386.214,323.607L263,200.394v-18.787   l132.246,132.246C392.354,317.068,389.341,320.321,386.214,323.607z M366.182,343.575L263,240.394v-18.787l112.717,112.717   C372.639,337.38,369.468,340.462,366.182,343.575z M323.337,380.73L263,320.394v-18.787l70.7,70.7   C330.22,375.189,326.762,377.999,323.337,380.73z M300.711,398.104L263,360.394v-18.787l48.432,48.432   C307.79,392.828,304.213,395.516,300.711,398.104z M277.355,414.749L263,400.394v-18.787l25.414,25.415   C284.582,409.745,280.884,412.326,277.355,414.749z M263,421.606l1.672,1.672c-0.567,0.374-1.12,0.736-1.672,1.098V421.606z    M47,171.5C47,118.29,90.29,75,143.5,75c31.7,0,61.413,15.645,79.481,41.849c5.93,8.6,14.957,14.405,25.019,16.351v30.297   c0,0.001,0,0.003,0,0.005v39.995c0,0.001,0,0.003,0,0.005v39.995c0,0.001,0,0.003,0,0.005v39.995c0,0.001,0,0.003,0,0.005v39.995   c0,0.001,0,0.003,0,0.005v39.995c0,0.002,0,0.004,0,0.005v39.995c0,0.001,0,0.003,0,0.005v20.873   c-22.558-14.774-57.02-39.039-90.987-69.553C66.086,273.142,47,210.047,47,171.5z M345.186,362.579L263,280.394v-18.787   l92.157,92.156c-0.392,0.354-0.775,0.705-1.169,1.06C351.054,357.457,348.118,360.04,345.186,362.579z"
   id="path90" />
</g>
<g
   id="g94">
</g>
<g
   id="g96">
</g>
<g
   id="g98">
</g>
<g
   id="g100">
</g>
<g
   id="g102">
</g>
<g
   id="g104">
</g>
<g
   id="g106">
</g>
<g
   id="g108">
</g>
<g
   id="g110">
</g>
<g
   id="g112">
</g>
<g
   id="g114">
</g>
<g
   id="g116">
</g>
<g
   id="g118">
</g>
<g
   id="g120">
</g>
<g
   id="g122">
</g>
</svg>
