<?xml version="1.0" encoding="iso-8859-1"?>
<!-- Generator: Adobe Illustrator 17.1.0, SVG Export Plug-In . SVG Version: 6.00 Build 0)  -->
<!DOCTYPE svg PUBLIC "-//W3C//DTD SVG 1.1//EN" "http://www.w3.org/Graphics/SVG/1.1/DTD/svg11.dtd">
<svg version="1.1" id="Capa_1" xmlns="http://www.w3.org/2000/svg" xmlns:xlink="http://www.w3.org/1999/xlink" x="0px" y="0px"
	 viewBox="0 0 511.002 511.002" style="enable-background:new 0 0 511.002 511.002;" xml:space="preserve">
<g>
	<path d="M510.908,306.898c-2.282-56.595-48.341-103.466-104.858-106.708c-44.168-2.533-85.697,21.303-105.801,60.725
		c-3.225,6.323-8.418,10.936-14.625,12.99c-1.373,0.454-2.763,0.902-4.167,1.342c2.29-16.933,6.187-33.68,11.625-49.926
		c2.072-6.19,6.623-11.329,12.813-14.471c39.544-20.07,63.456-61.638,60.917-105.898C363.571,48.437,316.701,2.377,260.107,0.095
		c-30.678-1.236-59.744,9.765-81.834,30.982c-22.101,21.227-34.272,49.789-34.272,80.424c0,42.216,23.466,80.311,61.24,99.418
		c6.096,3.083,10.585,8.159,12.641,14.294c5.458,16.281,9.368,33.064,11.662,50.033c-1.408-0.441-2.802-0.89-4.178-1.345
		c-6.201-2.052-11.389-6.66-14.609-12.976c-20.103-39.43-61.628-63.269-105.806-60.735C48.435,203.432,2.376,250.303,0.094,306.898
		c-1.236,30.682,9.767,59.744,30.984,81.833c21.227,22.1,49.789,34.271,80.423,34.271c42.045,0,80.07-23.329,99.235-60.883
		c3.239-6.346,8.457-10.976,14.693-13.038c1.365-0.451,2.747-0.896,4.143-1.334c-3.547,26.674-11.001,52.53-22.211,77.007
		c-12.4,27.073-29.093,51.836-49.616,73.602c-2.054,2.178-2.616,5.368-1.43,8.117c1.186,2.748,3.893,4.528,6.886,4.528h28.299h128
		H347.8c2.994,0,5.7-1.78,6.886-4.528c1.186-2.749,0.624-5.939-1.43-8.117c-20.523-21.766-37.216-46.53-49.616-73.602
		c-11.21-24.477-18.664-50.333-22.211-77.007c1.396,0.438,2.778,0.883,4.143,1.334c6.236,2.062,11.455,6.692,14.693,13.038
		c19.166,37.554,57.19,60.883,99.235,60.883c30.635,0,59.196-12.171,80.423-34.271C501.141,366.642,512.145,337.58,510.908,306.898z
		 M469.107,378.34c-18.372,19.127-43.092,29.662-69.605,29.662c-36.379,0-69.285-20.194-85.875-52.701
		c-5.045-9.885-13.335-17.152-23.345-20.461c-5.023-1.661-10.268-3.239-15.588-4.691c-2.373-0.646-4.911-0.09-6.794,1.49
		s-2.873,3.983-2.648,6.432c2.965,32.277,11.293,63.543,24.753,92.93c10.738,23.445,24.524,45.245,41.092,65.001h-11.595h-128
		h-11.595c16.568-19.757,30.354-41.557,41.092-65.001c13.459-29.387,21.788-60.653,24.753-92.93
		c0.225-2.448-0.765-4.852-2.648-6.432c-1.883-1.58-4.422-2.137-6.794-1.49c-5.32,1.452-10.564,3.03-15.588,4.691
		c-10.009,3.309-18.3,10.576-23.345,20.461c-16.59,32.507-49.496,52.701-85.875,52.701c-26.514,0-51.233-10.534-69.605-29.662
		c-18.362-19.117-27.884-44.274-26.813-70.837c1.974-48.973,41.827-89.532,90.729-92.337c38.222-2.196,74.183,18.442,91.583,52.573
		c5.025,9.856,13.286,17.103,23.26,20.403c5.044,1.669,10.309,3.254,15.647,4.711c2.376,0.647,4.915,0.09,6.799-1.493
		c1.884-1.583,2.872-3.989,2.644-6.439c-2.043-21.876-6.632-43.569-13.64-64.475c-3.318-9.899-10.454-18.036-20.093-22.912
		c-32.698-16.54-53.011-49.505-53.011-86.032c0-26.514,10.534-51.234,29.663-69.606c19.117-18.362,44.273-27.888,70.839-26.813
		c48.972,1.976,89.53,41.828,92.335,90.729c2.197,38.31-18.5,74.29-52.73,91.663c-9.726,4.937-16.917,13.135-20.249,23.085
		c-6.985,20.868-11.561,42.522-13.601,64.361c-0.229,2.45,0.759,4.856,2.643,6.439c1.885,1.583,4.424,2.141,6.799,1.493
		c5.336-1.456,10.598-3.04,15.637-4.708c9.979-3.302,18.245-10.552,23.275-20.416c17.402-34.125,53.351-54.759,91.579-52.564
		c48.902,2.805,88.755,43.364,90.729,92.337C496.991,334.066,487.468,359.223,469.107,378.34z"/>
	<path d="M111.501,232.001c-43.836,0-79.5,35.664-79.5,79.5s35.664,79.5,79.5,79.5s79.5-35.664,79.5-79.5
		S155.338,232.001,111.501,232.001z M175.029,300.423l-52.45-52.45C149.28,252.617,170.386,273.723,175.029,300.423z M171,336.394
		l-51.999-51.999v-18.787l56.172,56.171C174.353,326.873,172.941,331.77,171,336.394z M154.303,359.697l-35.302-35.302v-18.787
		l43.197,43.197c0.368,0.369,0.766,0.69,1.185,0.966C160.707,353.388,157.66,356.712,154.303,359.697z M119.001,345.608
		l22.808,22.808c-6.946,3.714-14.647,6.186-22.808,7.135V345.608z M47.001,311.501c0-33.027,24.957-60.32,57-64.05v0.047
		c0,0.001,0,0.003,0,0.005v39.995c0,0.001,0,0.003,0,0.005v39.995c0,0.001,0,0.003,0,0.005v48.047
		C71.958,371.822,47.001,344.529,47.001,311.501z"/>
	<path d="M399.501,232.001c-43.836,0-79.5,35.664-79.5,79.5s35.664,79.5,79.5,79.5s79.5-35.664,79.5-79.5
		S443.338,232.001,399.501,232.001z M463.029,300.423l-52.45-52.45C437.28,252.617,458.386,273.723,463.029,300.423z M459,336.394
		l-51.998-51.999v-18.787l56.172,56.171C462.353,326.873,460.941,331.77,459,336.394z M442.303,359.697l-35.302-35.302v-18.787
		l43.197,43.197c0.368,0.369,0.766,0.69,1.185,0.966C448.707,353.388,445.66,356.712,442.303,359.697z M407.001,345.608
		l22.808,22.808c-6.946,3.714-14.647,6.186-22.808,7.135V345.608z M335.001,311.501c0-33.027,24.957-60.32,57-64.05v0.047
		c0,0.001,0,0.003,0,0.005v39.995c0,0.001,0,0.003,0,0.005v39.995c0,0.001,0,0.003,0,0.005v48.047
		C359.958,371.822,335.001,344.529,335.001,311.501z"/>
	<path d="M335.001,111.501c0-43.836-35.664-79.5-79.5-79.5s-79.5,35.664-79.5,79.5s35.664,79.5,79.5,79.5
		S335.001,155.338,335.001,111.501z M298.303,159.697l-35.302-35.302v-18.787l43.197,43.197c0.368,0.369,0.766,0.69,1.185,0.966
		C304.707,153.388,301.66,156.712,298.303,159.697z M263.001,145.608l22.808,22.808c-6.946,3.714-14.647,6.186-22.808,7.135V145.608
		z M263.001,84.395V65.608l56.172,56.171c-0.819,5.093-2.232,9.991-4.173,14.614L263.001,84.395z M319.029,100.423l-52.45-52.45
		C293.28,52.617,314.386,73.723,319.029,100.423z M191.001,111.501c0-33.027,24.957-60.32,57-64.05v0.047c0,0.001,0,0.003,0,0.005
		v39.995c0,0.001,0,0.003,0,0.005v39.995c0,0.001,0,0.003,0,0.005v48.047C215.958,171.822,191.001,144.529,191.001,111.501z"/>
</g>
<g>
</g>
<g>
</g>
<g>
</g>
<g>
</g>
<g>
</g>
<g>
</g>
<g>
</g>
<g>
</g>
<g>
</g>
<g>
</g>
<g>
</g>
<g>
</g>
<g>
</g>
<g>
</g>
<g>
</g>
</svg>
