<?xml version="1.0" encoding="UTF-8" standalone="no"?>
<svg
   xmlns:dc="http://purl.org/dc/elements/1.1/"
   xmlns:cc="http://creativecommons.org/ns#"
   xmlns:rdf="http://www.w3.org/1999/02/22-rdf-syntax-ns#"
   xmlns:svg="http://www.w3.org/2000/svg"
   xmlns="http://www.w3.org/2000/svg"
   xmlns:sodipodi="http://sodipodi.sourceforge.net/DTD/sodipodi-0.dtd"
   xmlns:inkscape="http://www.inkscape.org/namespaces/inkscape"
   version="1.1"
   id="Capa_1"
   x="0px"
   y="0px"
   viewBox="0 0 511 511"
   style="enable-background:new 0 0 511 511;"
   xml:space="preserve"
   sodipodi:docname="front-spade.svg"
   inkscape:version="1.0.2 (e86c870879, 2021-01-15)"><metadata
   id="metadata215"><rdf:RDF><cc:Work
       rdf:about=""><dc:format>image/svg+xml</dc:format><dc:type
         rdf:resource="http://purl.org/dc/dcmitype/StillImage" /><dc:title></dc:title></cc:Work></rdf:RDF></metadata><defs
   id="defs213" /><sodipodi:namedview
   pagecolor="#ffffff"
   bordercolor="#666666"
   borderopacity="1"
   objecttolerance="10"
   gridtolerance="10"
   guidetolerance="10"
   inkscape:pageopacity="0"
   inkscape:pageshadow="2"
   inkscape:window-width="1920"
   inkscape:window-height="1017"
   id="namedview211"
   showgrid="false"
   inkscape:zoom="1.6634051"
   inkscape:cx="255.5"
   inkscape:cy="255.5"
   inkscape:window-x="-8"
   inkscape:window-y="-8"
   inkscape:window-maximized="1"
   inkscape:current-layer="Capa_1" />
<g
   id="g178"
   style="fill:#ffffff">
	<path
   d="M457.513,177.11c-19.607-30.255-46.877-60.973-81.053-91.302C318.532,34.4,259.75,1.284,259.163,0.955   c-2.275-1.273-5.05-1.273-7.325,0C251.25,1.284,192.468,34.4,134.54,85.809c-34.176,30.329-61.446,61.047-81.053,91.302   c-24.851,38.345-37.451,76.122-37.451,112.28C16.036,363.063,76.465,423,150.742,423c23.014,0,45.045-5.631,64.761-16.437   c-12.671,33.944-32.166,65.359-57.089,91.791c-2.054,2.178-2.616,5.368-1.43,8.117c1.186,2.748,3.893,4.528,6.886,4.528h184.599   c2.994,0,5.7-1.78,6.886-4.528c1.186-2.749,0.624-5.939-1.43-8.117c-24.701-26.197-44.088-57.323-56.768-90.942   c19.325,10.248,40.79,15.587,63.1,15.587c74.277,0,134.706-59.937,134.706-133.609C494.964,253.232,482.364,215.455,457.513,177.11   z M360.258,408c-26.352,0-51.377-8.38-72.372-24.233c-2.579-1.947-6.115-2.024-8.776-0.19c-2.661,1.834-3.847,5.167-2.945,8.271   c11.063,38.027,30.159,73.72,55.616,104.153H180.56c25.757-30.788,44.985-66.93,55.994-105.455   c0.893-3.124-0.327-6.466-3.021-8.281c-2.693-1.814-6.25-1.689-8.809,0.312C203.444,399.208,177.862,408,150.742,408   c-66.006,0-119.706-53.208-119.706-118.609c0-33.18,11.763-68.173,34.963-104.007c18.838-29.098,45.181-58.765,78.294-88.177   c48.507-43.085,97.631-73.06,111.207-81.043c13.549,7.963,62.509,37.828,111.003,80.863c33.165,29.432,59.549,59.12,78.422,88.241   c23.25,35.875,35.038,70.906,35.038,104.122C479.964,354.792,426.264,408,360.258,408z"
   id="path174"
   style="fill:#ffffff" />
	<path
   d="M462.896,292.905c0.04-1.167,0.068-2.337,0.068-3.514c0-46.223-25.803-96.609-76.691-149.758   c-49.038-51.216-105.025-87.954-126.82-101.371c-2.414-1.486-5.458-1.484-7.87,0.004c-21.795,13.449-77.785,50.263-126.833,101.5   c-50.903,53.176-76.713,103.517-76.713,149.625C48.036,345.418,94.11,391,150.742,391c23.289,0,45.251-7.545,63.511-21.818   c4.288-3.352,9.647-5.198,15.091-5.198c4.893,0,9.625,1.446,13.686,4.181c2.99,2.014,5.445,4.597,7.299,7.678   c1.324,2.2,3.683,3.57,6.25,3.631c2.579,0.06,4.987-1.198,6.414-3.334c1.725-2.583,3.9-4.79,6.467-6.56   c4.108-2.832,8.917-4.329,13.904-4.329c5.373,0,10.479,1.711,14.766,4.949c18.02,13.607,39.502,20.8,62.126,20.8   c54.553,0,99.301-42.298,102.514-95.484C462.966,294.658,463.007,293.775,462.896,292.905z M431.737,339.526L263,170.789v-18.787   l175.834,175.833C436.774,331.924,434.401,335.834,431.737,339.526z M411.702,359.491L263,210.789v-18.787L421.918,350.92   C418.742,354.025,415.326,356.891,411.702,359.491z M384.765,372.555L263,250.789v-18.787l135.38,135.38   C394.029,369.464,389.478,371.198,384.765,372.555z M263,352.002l2.526,2.526c-0.856,0.435-1.699,0.899-2.526,1.398V352.002z    M263,130.789v-18.787l184.653,184.652c-0.461,5.46-1.437,10.778-2.881,15.906L263,130.789z M263,90.789V72.002l178.481,178.481   c2.658,8.249,4.5,16.354,5.519,24.306L263,90.789z M375.438,150.006c20.034,20.924,35.941,41.262,47.703,60.925L286.25,74.039   C311.865,92.192,345.035,118.252,375.438,150.006z M229.345,348.984c-8.776,0-17.416,2.976-24.329,8.379   C189.418,369.556,170.651,376,150.742,376c-48.361,0-87.706-38.853-87.706-86.609c0-42.112,24.409-88.963,72.549-139.252   C176.391,107.511,222.186,75.078,248,58.297v35.595c0,0.002,0,0.003,0,0.005v259.796   C242.274,350.617,235.904,348.984,229.345,348.984z M283.365,350.251c-0.291,0-0.579,0.026-0.87,0.033L263,330.789v-18.787   l50.719,50.719c-2.234-1.395-4.422-2.885-6.548-4.49C300.259,353.011,292.027,350.251,283.365,350.251z M347.25,375.039   L263,290.789v-18.787l103.76,103.76c-2.147,0.156-4.315,0.238-6.502,0.238C355.862,376,351.521,375.666,347.25,375.039z"
   id="path176"
   style="fill:#ffffff" />
</g>
<g
   id="g180">
</g>
<g
   id="g182">
</g>
<g
   id="g184">
</g>
<g
   id="g186">
</g>
<g
   id="g188">
</g>
<g
   id="g190">
</g>
<g
   id="g192">
</g>
<g
   id="g194">
</g>
<g
   id="g196">
</g>
<g
   id="g198">
</g>
<g
   id="g200">
</g>
<g
   id="g202">
</g>
<g
   id="g204">
</g>
<g
   id="g206">
</g>
<g
   id="g208">
</g>
</svg>
