<?xml version="1.0" encoding="UTF-8" standalone="no"?>
<svg
   xmlns:dc="http://purl.org/dc/elements/1.1/"
   xmlns:cc="http://creativecommons.org/ns#"
   xmlns:rdf="http://www.w3.org/1999/02/22-rdf-syntax-ns#"
   xmlns:svg="http://www.w3.org/2000/svg"
   xmlns="http://www.w3.org/2000/svg"
   xmlns:sodipodi="http://sodipodi.sourceforge.net/DTD/sodipodi-0.dtd"
   xmlns:inkscape="http://www.inkscape.org/namespaces/inkscape"
   enable-background="new 0 0 512 512"
   height="512px"
   id="Poker_x5F_chips"
   version="1.1"
   viewBox="0 0 512 512"
   width="512px"
   xml:space="preserve"
   sodipodi:docname="back-cardslot-white.svg"
   inkscape:version="1.0.2 (e86c870879, 2021-01-15)"><metadata
     id="metadata51"><rdf:RDF><cc:Work
         rdf:about=""><dc:format>image/svg+xml</dc:format><dc:type
           rdf:resource="http://purl.org/dc/dcmitype/StillImage" /><dc:title></dc:title></cc:Work></rdf:RDF></metadata><defs
     id="defs49" /><sodipodi:namedview
     pagecolor="#ffffff"
     bordercolor="#666666"
     borderopacity="1"
     objecttolerance="10"
     gridtolerance="10"
     guidetolerance="10"
     inkscape:pageopacity="0"
     inkscape:pageshadow="2"
     inkscape:window-width="1920"
     inkscape:window-height="1017"
     id="namedview47"
     showgrid="false"
     inkscape:zoom="1.6601562"
     inkscape:cx="256"
     inkscape:cy="256"
     inkscape:window-x="-8"
     inkscape:window-y="-8"
     inkscape:window-maximized="1"
     inkscape:current-layer="Poker_x5F_chips" /><g
     id="g44"
     style="fill:#ffffff"><g
       id="g42"
       style="fill:#ffffff"><g
         id="g6"
         style="fill:#ffffff"><g
           id="g4"
           style="fill:#ffffff"><path
             clip-rule="evenodd"
             d="M242.041,327.205c-0.01-0.029-0.02-0.057-0.03-0.085      c-3.459-9.844-8.571-18.907-15.005-26.859c-0.02-0.024-0.04-0.05-0.06-0.075c-1.724-2.126-3.542-4.172-5.449-6.132      c-0.035-0.036-0.068-0.073-0.104-0.109l0.002-0.003c-0.107-0.109-0.218-0.216-0.326-0.325c-0.305-0.31-0.613-0.617-0.922-0.923      c-0.109-0.107-0.216-0.218-0.326-0.325l-0.004,0.004c-11.772-11.487-26.663-19.792-43.286-23.521      c-0.118-0.026-0.236-0.051-0.354-0.077c-0.706-0.155-1.415-0.302-2.127-0.441c-0.167-0.032-0.333-0.063-0.5-0.095      c-0.685-0.13-1.372-0.252-2.062-0.365c-0.163-0.027-0.326-0.055-0.49-0.081c-0.757-0.121-1.518-0.232-2.281-0.334      c-0.083-0.012-0.167-0.024-0.25-0.035c-1.714-0.224-3.444-0.399-5.188-0.525c-0.2-0.015-0.401-0.024-0.602-0.038      c-0.644-0.043-1.288-0.08-1.936-0.109c-0.282-0.012-0.564-0.021-0.847-0.031c-0.575-0.021-1.151-0.035-1.728-0.045      c-0.171-0.003-0.341-0.012-0.513-0.014c-0.128-0.002-0.256,0.003-0.384,0.002c-0.208-0.002-0.414-0.008-0.622-0.008      c-0.5,0-0.999,0.011-1.498,0.02c-0.219,0.003-0.439,0.003-0.658,0.008c-0.896,0.021-1.79,0.055-2.679,0.102      c-0.235,0.013-0.469,0.031-0.705,0.045c-0.673,0.041-1.344,0.087-2.012,0.143c-0.299,0.024-0.598,0.052-0.896,0.08      c-0.644,0.059-1.286,0.126-1.926,0.199c-0.256,0.029-0.512,0.057-0.768,0.088c-1.792,0.22-3.568,0.493-5.327,0.816      c-0.202,0.037-0.402,0.078-0.604,0.116c-0.706,0.135-1.408,0.277-2.108,0.429c-0.202,0.043-0.404,0.086-0.606,0.132      c-0.814,0.182-1.625,0.372-2.43,0.575c-0.042,0.012-0.085,0.02-0.127,0.031h0c-15.633,3.973-29.638,12.017-40.826,22.936      l-0.003-0.004c-0.1,0.098-0.196,0.197-0.296,0.296c-0.317,0.312-0.632,0.626-0.945,0.943c-0.11,0.112-0.224,0.221-0.333,0.333      l0.004,0.004c-15.91,16.305-25.718,38.59-25.718,63.17c0,10.461,1.782,20.504,5.048,29.851c0.025,0.071,0.05,0.143,0.076,0.214      c0.3,0.852,0.611,1.698,0.936,2.538c0.004,0.01,0.008,0.02,0.012,0.03c0.681,1.76,1.416,3.493,2.202,5.198      c0.007,0.016,0.015,0.031,0.022,0.048c0.38,0.824,0.774,1.641,1.178,2.451c0.019,0.038,0.038,0.076,0.057,0.113      c1.246,2.49,2.604,4.913,4.067,7.265c0.026,0.042,0.052,0.084,0.079,0.126c1.467,2.351,3.039,4.629,4.71,6.83      c0.022,0.028,0.044,0.057,0.066,0.086c0.529,0.695,1.069,1.383,1.618,2.063c0.039,0.049,0.078,0.098,0.118,0.146      c1.16,1.429,2.361,2.823,3.604,4.179c0.002,0.002,0.004,0.004,0.006,0.006c0.591,0.644,1.191,1.277,1.8,1.902      c0.04,0.041,0.079,0.084,0.119,0.125l-0.002,0.004c0.125,0.129,0.255,0.253,0.381,0.381c0.258,0.262,0.518,0.521,0.78,0.78      c0.138,0.136,0.272,0.276,0.411,0.411l0.005-0.004c11.77,11.484,26.657,19.788,43.275,23.518      c0.129,0.029,0.259,0.057,0.389,0.085c0.692,0.151,1.386,0.296,2.083,0.433c0.181,0.035,0.362,0.069,0.543,0.104      c0.664,0.125,1.331,0.243,2,0.354c0.184,0.031,0.368,0.063,0.552,0.092c0.725,0.115,1.452,0.222,2.183,0.32      c0.116,0.016,0.231,0.033,0.347,0.048c1.7,0.222,3.415,0.396,5.144,0.521c0.231,0.018,0.464,0.029,0.695,0.045      c0.611,0.039,1.223,0.075,1.837,0.103c0.305,0.014,0.611,0.024,0.917,0.035c0.548,0.019,1.098,0.033,1.649,0.043      c0.184,0.003,0.366,0.013,0.55,0.015c0.138,0.001,0.274-0.004,0.412-0.002c0.198,0,0.396,0.007,0.594,0.007      c0.477,0,0.951-0.011,1.425-0.019c0.25-0.004,0.501-0.003,0.751-0.009c0.881-0.021,1.76-0.055,2.635-0.101      c0.271-0.014,0.54-0.035,0.81-0.051c0.632-0.039,1.262-0.082,1.89-0.134c0.33-0.027,0.66-0.058,0.989-0.088      c0.599-0.056,1.195-0.118,1.791-0.186c0.298-0.034,0.596-0.065,0.893-0.103c0.871-0.107,1.739-0.223,2.602-0.355      c0.046-0.007,0.092-0.016,0.138-0.022c0.834-0.129,1.665-0.271,2.491-0.423c0.254-0.047,0.507-0.098,0.761-0.146      c0.641-0.123,1.279-0.252,1.916-0.389c0.254-0.055,0.509-0.109,0.763-0.166c0.727-0.164,1.45-0.335,2.17-0.516      c0.106-0.025,0.213-0.049,0.319-0.075l0-0.002c15.632-3.972,29.637-12.017,40.826-22.935l0.004,0.004      c0.119-0.115,0.233-0.234,0.351-0.351c0.289-0.285,0.576-0.571,0.861-0.86c0.12-0.121,0.243-0.24,0.362-0.361l-0.004-0.005      c15.91-16.304,25.718-38.589,25.718-63.169C247.11,346.632,245.321,336.568,242.041,327.205z M178.023,432.592l-2.735-10.207      c-6.158,1.756-12.664,2.678-19.393,2.603c-6.202-0.069-12.194-0.983-17.884-2.604l-2.735,10.209      c-12.686-3.598-24.07-10.306-33.275-19.256l7.458-7.458c-8.965-8.679-15.546-19.79-18.663-32.268l-10.214,2.737      c-1.557-6.157-2.393-12.599-2.393-19.232c0-6.635,0.835-13.076,2.393-19.232l10.228,2.74      c3.12-12.498,9.688-23.613,18.642-32.279L102,300.893c9.206-8.949,20.589-15.657,33.275-19.255l2.735,10.208      c6.158-1.756,12.664-2.678,19.393-2.604c6.202,0.068,12.193,0.983,17.884,2.605l2.735-10.21      c12.686,3.599,24.069,10.306,33.274,19.255l-7.458,7.459c8.965,8.679,15.547,19.791,18.664,32.269l10.214-2.737      c1.557,6.157,2.393,12.598,2.393,19.232c0,6.633-0.835,13.074-2.393,19.231l-10.228-2.74      c-3.12,12.499-9.688,23.614-18.642,32.28l7.45,7.45C202.092,422.287,190.708,428.994,178.023,432.592z"
             fill-rule="evenodd"
             id="path2"
             style="fill:#ffffff" /></g></g><g
         id="g10"
         style="fill:#ffffff"><path
           clip-rule="evenodd"
           d="M156.649,318.97c-8.829,13.595-19.904,26.213-32.522,38.153     c13.672,11.607,24.524,24.311,32.522,38.137c8.143-14.82,18.729-27.738,32.522-38.137     C175.593,344.395,164.587,331.674,156.649,318.97z"
           fill-rule="evenodd"
           id="path8"
           style="fill:#ffffff" /></g><g
         id="g16"
         style="fill:#ffffff"><g
           id="g14"
           style="fill:#ffffff"><path
             clip-rule="evenodd"
             d="M70.23,124.948c-3.286,9.371-5.078,19.444-5.078,29.937      c0,10.463,1.782,20.508,5.05,29.856c0.023,0.067,0.047,0.135,0.071,0.202c0.302,0.857,0.615,1.709,0.942,2.555      c0.002,0.005,0.004,0.01,0.006,0.015c0.682,1.763,1.418,3.499,2.205,5.207c0.006,0.013,0.012,0.026,0.019,0.039      c0.382,0.828,0.777,1.648,1.183,2.462c0.018,0.035,0.035,0.07,0.052,0.105c1.248,2.492,2.607,4.918,4.072,7.273      c0.023,0.038,0.047,0.076,0.071,0.114c1.469,2.353,3.041,4.633,4.713,6.834c0.022,0.03,0.046,0.06,0.069,0.09      c0.529,0.694,1.068,1.381,1.617,2.06c0.039,0.049,0.078,0.098,0.117,0.146c1.159,1.428,2.359,2.821,3.601,4.175      c0.006,0.006,0.012,0.013,0.018,0.02c0.585,0.638,1.182,1.266,1.785,1.887c0.042,0.043,0.082,0.088,0.124,0.131l-0.002,0.003      c0.128,0.132,0.26,0.259,0.389,0.39c0.253,0.256,0.508,0.512,0.764,0.765c0.141,0.139,0.277,0.281,0.418,0.418l0.005-0.005      c11.771,11.487,26.659,19.791,43.279,23.52c0.125,0.028,0.251,0.054,0.376,0.082c0.698,0.153,1.399,0.299,2.103,0.437      c0.173,0.034,0.346,0.066,0.52,0.099c0.675,0.128,1.353,0.248,2.034,0.36c0.173,0.029,0.345,0.059,0.518,0.086      c0.741,0.118,1.485,0.227,2.232,0.327c0.1,0.013,0.199,0.028,0.299,0.042c1.707,0.223,3.429,0.397,5.165,0.523      c0.216,0.016,0.433,0.027,0.648,0.041c0.629,0.041,1.26,0.078,1.893,0.106c0.288,0.013,0.577,0.022,0.866,0.033      c0.57,0.02,1.143,0.035,1.716,0.045c0.172,0.002,0.343,0.011,0.515,0.013c0.129,0.001,0.256-0.003,0.385-0.002      c0.208,0.001,0.414,0.008,0.622,0.008c0.499,0,0.994-0.011,1.491-0.019c0.222-0.003,0.444-0.003,0.666-0.008      c0.894-0.021,1.784-0.055,2.671-0.102c0.247-0.013,0.492-0.032,0.739-0.047c0.656-0.04,1.31-0.085,1.961-0.139      c0.318-0.026,0.635-0.055,0.952-0.084c0.613-0.057,1.225-0.121,1.834-0.19c0.286-0.032,0.573-0.063,0.858-0.098      c0.876-0.108,1.749-0.225,2.617-0.357c0.035-0.005,0.07-0.012,0.105-0.018c0.845-0.13,1.686-0.275,2.523-0.428      c0.252-0.046,0.502-0.096,0.754-0.145c0.642-0.124,1.282-0.253,1.919-0.39c0.256-0.055,0.511-0.11,0.766-0.167      c0.725-0.163,1.447-0.334,2.166-0.514c0.107-0.026,0.215-0.049,0.322-0.076l0-0.002c15.632-3.972,29.637-12.016,40.826-22.935      l0.004,0.004c0.109-0.106,0.213-0.215,0.322-0.321c0.305-0.301,0.607-0.603,0.908-0.907c0.114-0.116,0.231-0.229,0.345-0.345      l-0.004-0.004c15.91-16.304,25.718-38.59,25.718-63.169c0-10.48-1.788-20.541-5.066-29.902      c-0.012-0.035-0.024-0.069-0.037-0.104c-2.201-6.262-5.071-12.207-8.525-17.752c-0.004-0.007-0.009-0.014-0.013-0.021      c-1.482-2.377-3.07-4.682-4.76-6.905c-0.008-0.01-0.016-0.021-0.023-0.031c-0.544-0.715-1.1-1.422-1.664-2.12      c-0.029-0.036-0.057-0.071-0.086-0.107c-1.716-2.116-3.526-4.152-5.423-6.104c-0.04-0.042-0.078-0.084-0.118-0.125l0.002-0.002      c-0.107-0.11-0.218-0.216-0.326-0.326c-0.305-0.31-0.613-0.617-0.922-0.922c-0.109-0.108-0.216-0.219-0.326-0.326l-0.004,0.004      c-11.771-11.486-26.659-19.79-43.28-23.519c-0.124-0.028-0.249-0.054-0.373-0.081c-0.697-0.153-1.396-0.299-2.099-0.436      c-0.177-0.034-0.354-0.068-0.531-0.102c-0.668-0.126-1.34-0.245-2.014-0.356c-0.18-0.03-0.36-0.061-0.54-0.089      c-0.729-0.116-1.462-0.223-2.197-0.322c-0.111-0.015-0.222-0.032-0.333-0.047c-1.702-0.222-3.418-0.396-5.148-0.521      c-0.229-0.017-0.46-0.028-0.69-0.043c-0.612-0.04-1.226-0.076-1.842-0.103c-0.305-0.014-0.61-0.024-0.915-0.035      c-0.549-0.019-1.099-0.034-1.651-0.043c-0.184-0.003-0.366-0.012-0.549-0.014c-0.138-0.001-0.274,0.003-0.411,0.002      c-0.199-0.001-0.396-0.007-0.595-0.007c-0.479,0-0.955,0.011-1.432,0.018c-0.248,0.004-0.496,0.003-0.743,0.009      c-0.883,0.021-1.763,0.055-2.64,0.101c-0.264,0.014-0.526,0.034-0.79,0.05c-0.642,0.04-1.282,0.083-1.92,0.136      c-0.319,0.026-0.638,0.055-0.956,0.085c-0.618,0.057-1.233,0.122-1.847,0.191c-0.279,0.032-0.558,0.061-0.835,0.096      c-1.777,0.219-3.539,0.49-5.283,0.81c-0.223,0.041-0.445,0.085-0.668,0.128c-0.68,0.13-1.357,0.268-2.032,0.413      c-0.222,0.048-0.444,0.095-0.666,0.145c-0.782,0.175-1.56,0.358-2.334,0.553c-0.065,0.017-0.132,0.03-0.197,0.047l0,0.001      c-15.633,3.972-29.637,12.016-40.826,22.934l-0.004-0.003c-0.109,0.106-0.214,0.215-0.322,0.322      c-0.297,0.292-0.592,0.586-0.884,0.883c-0.122,0.124-0.247,0.244-0.368,0.368l0.005,0.004      c-9.108,9.333-16.213,20.627-20.625,33.191C70.24,124.92,70.235,124.935,70.23,124.948z M134.239,79.408l2.735,10.207      c6.158-1.756,12.664-2.678,19.393-2.603c6.202,0.069,12.193,0.983,17.884,2.605l2.735-10.209      c12.685,3.598,24.069,10.305,33.274,19.254l-7.458,7.458c8.965,8.679,15.548,19.792,18.665,32.27l10.214-2.737      c1.557,6.157,2.393,12.598,2.393,19.231s-0.835,13.075-2.393,19.232l-10.228-2.741c-3.12,12.5-9.688,23.615-18.642,32.281      l7.45,7.45c-9.205,8.95-20.589,15.657-33.274,19.255l-2.735-10.207c-6.158,1.756-12.664,2.678-19.393,2.603      c-6.202-0.069-12.194-0.983-17.884-2.605l-2.735,10.209c-12.686-3.598-24.07-10.306-33.275-19.256l7.458-7.458      c-8.965-8.678-15.546-19.79-18.663-32.267l-10.214,2.737c-1.557-6.157-2.393-12.598-2.393-19.232      c0-6.634,0.835-13.075,2.393-19.232l10.228,2.74c3.12-12.499,9.688-23.614,18.642-32.28l-7.45-7.45      C110.169,89.713,121.553,83.006,134.239,79.408z"
             fill-rule="evenodd"
             id="path12"
             style="fill:#ffffff" /></g></g><g
         id="g20"
         style="fill:#ffffff"><path
           clip-rule="evenodd"
           d="M140.125,176.831c5.936,0,11.113-3.149,13.825-7.791     c0.157,5.293-2.283,12.977-6.529,22.366h16.859c-4.155-8.714-7.354-16.785-7.049-22.432c2.696,4.683,7.898,7.857,13.85,7.857     c8.706,0,15.813-6.793,15.813-15.128c0-5.128-3.256-9.448-6.538-12.853c-11.394-11.831-19.324-21.155-24.724-30.487     c-6.513,11.822-15.936,20.849-25.458,30.487c-3.817,3.866-5.845,7.37-5.845,12.853     C124.33,170.038,131.428,176.831,140.125,176.831z"
           fill-rule="evenodd"
           id="path18"
           style="fill:#ffffff" /></g><g
         id="g26"
         style="fill:#ffffff"><g
           id="g24"
           style="fill:#ffffff"><path
             clip-rule="evenodd"
             d="M440.262,325.512c-0.012-0.033-0.023-0.064-0.035-0.098      c-2.202-6.266-5.074-12.217-8.531-17.766h-0.001c-1.485-2.384-3.077-4.693-4.771-6.922c-0.004-0.006-0.007-0.01-0.011-0.016      c-0.549-0.721-1.108-1.434-1.678-2.138c-0.025-0.031-0.051-0.063-0.076-0.095c-1.719-2.117-3.529-4.156-5.428-6.109      c-0.04-0.041-0.078-0.083-0.118-0.124l0.002-0.002c-0.106-0.11-0.218-0.216-0.325-0.325c-0.306-0.311-0.613-0.617-0.923-0.923      c-0.109-0.108-0.216-0.218-0.325-0.325l-0.004,0.004c-11.771-11.487-26.66-19.791-43.28-23.52      c-0.124-0.027-0.247-0.053-0.37-0.08c-0.701-0.154-1.404-0.301-2.111-0.438c-0.17-0.033-0.34-0.065-0.511-0.099      c-0.681-0.128-1.363-0.248-2.049-0.361c-0.167-0.027-0.334-0.057-0.501-0.084c-0.75-0.119-1.502-0.229-2.258-0.33      c-0.092-0.012-0.184-0.026-0.275-0.039c-1.709-0.223-3.433-0.397-5.17-0.523c-0.217-0.016-0.436-0.027-0.652-0.041      c-0.625-0.041-1.252-0.078-1.88-0.105c-0.298-0.014-0.597-0.023-0.895-0.034c-0.554-0.019-1.108-0.034-1.663-0.044      c-0.184-0.002-0.365-0.012-0.548-0.014c-0.138-0.002-0.274,0.003-0.411,0.002c-0.199-0.001-0.396-0.008-0.596-0.008      c-0.479,0-0.955,0.012-1.432,0.019c-0.247,0.004-0.495,0.004-0.742,0.009c-0.883,0.021-1.764,0.055-2.642,0.102      c-0.263,0.014-0.522,0.033-0.784,0.049c-0.644,0.039-1.285,0.084-1.926,0.137c-0.318,0.026-0.635,0.055-0.951,0.084      c-0.62,0.059-1.238,0.123-1.854,0.193c-0.277,0.031-0.555,0.061-0.83,0.094c-1.779,0.22-3.543,0.49-5.288,0.812      c-0.22,0.04-0.439,0.084-0.659,0.126c-0.684,0.131-1.365,0.27-2.043,0.416c-0.219,0.047-0.438,0.094-0.656,0.143      c-0.787,0.176-1.57,0.361-2.35,0.557c-0.063,0.016-0.125,0.029-0.187,0.045v0.001c-15.632,3.972-29.638,12.016-40.826,22.935      l-0.003-0.004c-0.104,0.102-0.205,0.207-0.309,0.309c-0.306,0.301-0.609,0.604-0.91,0.908c-0.117,0.119-0.238,0.235-0.355,0.355      l0.004,0.004c-15.91,16.305-25.718,38.59-25.718,63.17c0,10.469,1.784,20.52,5.056,29.872c0.02,0.056,0.039,0.112,0.06,0.169      c0.937,2.66,1.991,5.263,3.163,7.802c0.002,0.005,0.005,0.011,0.007,0.015c0.386,0.836,0.784,1.664,1.194,2.484      c0.016,0.031,0.031,0.063,0.047,0.095c1.248,2.493,2.607,4.921,4.074,7.277c0.023,0.038,0.047,0.076,0.07,0.114      c1.469,2.352,3.041,4.632,4.712,6.832c0.024,0.032,0.049,0.064,0.073,0.096c0.527,0.692,1.064,1.376,1.61,2.052      c0.041,0.052,0.083,0.103,0.124,0.154c1.158,1.427,2.357,2.818,3.598,4.171c0.006,0.007,0.012,0.014,0.018,0.02      c0.586,0.638,1.183,1.266,1.786,1.887c0.042,0.044,0.082,0.089,0.124,0.132l-0.002,0.003c0.127,0.13,0.257,0.256,0.384,0.385      c0.26,0.263,0.521,0.523,0.784,0.784c0.135,0.134,0.268,0.271,0.404,0.403l0.004-0.004      c11.772,11.487,26.663,19.791,43.285,23.521c0.12,0.026,0.24,0.052,0.359,0.078c0.703,0.155,1.41,0.302,2.119,0.439      c0.17,0.033,0.34,0.065,0.51,0.099c0.68,0.127,1.361,0.248,2.045,0.361c0.17,0.027,0.339,0.057,0.51,0.084      c0.741,0.118,1.486,0.228,2.234,0.327c0.1,0.014,0.199,0.029,0.301,0.042c1.704,0.223,3.424,0.396,5.157,0.523      c0.226,0.016,0.454,0.027,0.681,0.043c0.615,0.039,1.23,0.076,1.849,0.104c0.304,0.014,0.609,0.023,0.915,0.035      c0.549,0.019,1.099,0.033,1.65,0.043c0.184,0.002,0.365,0.012,0.549,0.014c0.139,0.002,0.275-0.003,0.412-0.002      c0.199,0.001,0.396,0.008,0.594,0.008c0.477,0,0.951-0.012,1.426-0.019c0.25-0.004,0.502-0.003,0.752-0.009      c0.881-0.021,1.759-0.055,2.633-0.101c0.273-0.015,0.544-0.035,0.816-0.052c0.629-0.039,1.257-0.082,1.883-0.133      c0.332-0.027,0.662-0.059,0.994-0.089c0.596-0.056,1.189-0.118,1.782-0.185c0.3-0.034,0.601-0.066,0.899-0.104      c0.869-0.106,1.736-0.223,2.598-0.354c0.054-0.009,0.106-0.019,0.16-0.026c0.826-0.128,1.648-0.27,2.467-0.419      c0.26-0.048,0.516-0.099,0.773-0.148c0.637-0.122,1.27-0.251,1.9-0.386c0.26-0.057,0.518-0.111,0.775-0.17      c0.72-0.16,1.436-0.33,2.148-0.509c0.111-0.028,0.225-0.052,0.336-0.079v-0.003c15.633-3.972,29.637-12.016,40.826-22.935      l0.004,0.004c0.113-0.109,0.222-0.223,0.334-0.334c0.296-0.292,0.59-0.586,0.883-0.881c0.117-0.12,0.239-0.236,0.356-0.357      l-0.005-0.004c15.91-16.305,25.719-38.59,25.719-63.17C445.328,344.936,443.539,334.873,440.262,325.512z M376.241,430.893      l-2.735-10.207c-6.157,1.756-12.663,2.678-19.393,2.604c-6.201-0.069-12.193-0.984-17.884-2.605l-2.735,10.209      c-12.686-3.598-24.07-10.305-33.275-19.256l7.458-7.457c-8.965-8.68-15.546-19.791-18.663-32.268l-10.214,2.736      c-1.558-6.156-2.393-12.598-2.393-19.232c0-6.634,0.835-13.075,2.393-19.232l10.228,2.741      c3.121-12.499,9.688-23.614,18.643-32.28l-7.451-7.45c9.205-8.95,20.59-15.657,33.275-19.255l2.735,10.207      c6.157-1.756,12.663-2.678,19.394-2.604c6.201,0.069,12.193,0.984,17.883,2.605l2.736-10.209      c12.686,3.598,24.068,10.305,33.273,19.254l-7.458,7.459c8.966,8.679,15.548,19.791,18.664,32.27l10.214-2.737      c1.557,6.157,2.393,12.598,2.393,19.231s-0.836,13.075-2.393,19.232l-10.228-2.74c-3.12,12.498-9.688,23.614-18.642,32.279      l7.449,7.451C400.311,420.588,388.927,427.295,376.241,430.893z"
             fill-rule="evenodd"
             id="path22"
             style="fill:#ffffff" /></g></g><g
         id="g30"
         style="fill:#ffffff"><path
           clip-rule="evenodd"
           d="M373.532,346.775c-4.355,0-8.456,1.664-11.065,4.748     c-0.533,0.615-1.066,1.264-1.919,1.264c-1.148,0-2.075-0.951-2.075-2.092c0-1.033,0.804-1.738,1.779-2.059     c5.865-2.01,9.95-7.809,9.95-14.37c0-8.44-6.882-15.33-15.33-15.33s-15.347,6.89-15.347,15.33     c0,6.882,4.568,12.714,10.803,14.657c0.262,0.082,1.23,0.607,1.23,1.936c0,1.148-0.943,2.076-2.084,2.076     c-0.115,0-1.017-0.041-1.484-0.624c-2.838-3.371-7.063-5.536-11.803-5.536c-8.432,0-15.33,6.898-15.33,15.338     s6.898,15.346,15.33,15.346c5.873,0,10.753-2.984,13.304-7.8c2.157-3.724,3.396-0.647,2.51,4.831     c-0.541,3.412-1.247,6.242-5.577,17.405h16.896c-4.404-10.77-5.561-13.616-6.103-17.544c-0.681-4.766,0.492-8.818,3.026-4.61     c2.633,4.593,7.62,7.718,13.288,7.718c8.464,0,15.347-6.906,15.347-15.346S381.996,346.775,373.532,346.775z"
           fill-rule="evenodd"
           id="path28"
           style="fill:#ffffff" /></g><g
         id="g36"
         style="fill:#ffffff"><g
           id="g34"
           style="fill:#ffffff"><path
             clip-rule="evenodd"
             d="M270.983,184.824c0.019,0.056,0.038,0.111,0.058,0.166      c0.938,2.662,1.994,5.266,3.166,7.807c0.001,0.002,0.002,0.004,0.002,0.006c0.389,0.84,0.789,1.672,1.201,2.498      c0.014,0.027,0.026,0.054,0.04,0.081c1.25,2.498,2.612,4.929,4.08,7.288c0.021,0.035,0.043,0.069,0.064,0.103      c1.47,2.356,3.045,4.64,4.72,6.844c0.021,0.027,0.041,0.054,0.063,0.081c0.53,0.698,1.072,1.387,1.623,2.068      c0.037,0.047,0.075,0.094,0.113,0.141c1.16,1.43,2.361,2.825,3.605,4.18c0.002,0.002,0.004,0.004,0.006,0.006      c0.591,0.644,1.191,1.277,1.8,1.903c0.04,0.041,0.079,0.084,0.118,0.125l-0.002,0.003c0.126,0.129,0.256,0.253,0.381,0.381      c0.259,0.262,0.519,0.522,0.78,0.78c0.138,0.136,0.272,0.276,0.411,0.412l0.005-0.005c11.772,11.488,26.662,19.792,43.284,23.52      c0.121,0.027,0.241,0.052,0.361,0.079c0.703,0.154,1.408,0.301,2.116,0.439c0.171,0.033,0.342,0.066,0.513,0.098      c0.678,0.128,1.359,0.249,2.042,0.361c0.171,0.028,0.341,0.058,0.511,0.084c0.742,0.118,1.486,0.227,2.233,0.327      c0.101,0.014,0.201,0.029,0.302,0.042c1.705,0.222,3.424,0.396,5.157,0.522c0.227,0.017,0.454,0.028,0.681,0.043      c0.615,0.04,1.23,0.076,1.85,0.104c0.304,0.014,0.609,0.024,0.914,0.035c0.549,0.019,1.1,0.034,1.65,0.043      c0.184,0.003,0.366,0.012,0.55,0.014c0.138,0.001,0.274-0.003,0.412-0.002c0.198,0.001,0.396,0.007,0.594,0.007      c0.477,0,0.95-0.011,1.425-0.018c0.251-0.004,0.502-0.003,0.752-0.009c0.881-0.021,1.76-0.054,2.634-0.1      c0.272-0.014,0.544-0.035,0.815-0.052c0.629-0.039,1.257-0.082,1.883-0.133c0.332-0.027,0.663-0.058,0.994-0.088      c0.596-0.056,1.19-0.118,1.783-0.185c0.3-0.034,0.6-0.066,0.898-0.103c0.87-0.107,1.736-0.223,2.599-0.355      c0.052-0.008,0.103-0.018,0.154-0.025c0.829-0.128,1.653-0.27,2.474-0.42c0.258-0.047,0.513-0.098,0.77-0.147      c0.638-0.123,1.273-0.251,1.907-0.388c0.257-0.055,0.513-0.11,0.768-0.167c0.726-0.163,1.448-0.334,2.168-0.514      c0.106-0.026,0.214-0.049,0.319-0.076v-0.002c15.633-3.972,29.637-12.016,40.826-22.935l0.004,0.004      c0.119-0.116,0.233-0.235,0.352-0.351c0.289-0.285,0.576-0.572,0.86-0.861c0.12-0.121,0.243-0.239,0.362-0.361l-0.005-0.004      c15.91-16.304,25.718-38.589,25.718-63.169c0-10.481-1.788-20.543-5.066-29.906c-0.012-0.031-0.022-0.063-0.033-0.094      c-2.202-6.265-5.073-12.213-8.529-17.761c-0.003-0.004-0.006-0.009-0.009-0.014c-1.483-2.38-3.073-4.686-4.765-6.911      c-0.006-0.008-0.013-0.017-0.02-0.025c-0.545-0.717-1.102-1.426-1.669-2.127c-0.026-0.034-0.054-0.068-0.081-0.102      c-1.718-2.117-3.529-4.155-5.428-6.107c-0.039-0.041-0.076-0.083-0.115-0.123l0.002-0.002c-0.113-0.116-0.23-0.228-0.344-0.343      c-0.293-0.298-0.589-0.593-0.887-0.887c-0.115-0.114-0.228-0.23-0.344-0.344l-0.004,0.004      c-11.769-11.483-26.652-19.786-43.269-23.516c-0.135-0.03-0.271-0.059-0.405-0.088c-0.688-0.151-1.379-0.295-2.074-0.431      c-0.18-0.035-0.359-0.069-0.539-0.103c-0.668-0.126-1.34-0.245-2.014-0.356c-0.178-0.029-0.355-0.06-0.533-0.088      c-0.734-0.117-1.471-0.225-2.21-0.324c-0.107-0.014-0.214-0.031-0.321-0.045c-1.703-0.222-3.42-0.396-5.152-0.522      c-0.228-0.017-0.457-0.028-0.686-0.043c-0.613-0.04-1.227-0.076-1.844-0.103c-0.305-0.014-0.611-0.024-0.917-0.035      c-0.548-0.019-1.098-0.034-1.649-0.043c-0.184-0.003-0.365-0.012-0.549-0.014c-0.139-0.001-0.274,0.003-0.412,0.002      c-0.199-0.001-0.396-0.007-0.595-0.007c-0.479,0-0.955,0.011-1.433,0.018c-0.246,0.004-0.494,0.004-0.741,0.009      c-0.884,0.021-1.765,0.055-2.642,0.101c-0.264,0.014-0.525,0.034-0.788,0.05c-0.642,0.039-1.281,0.083-1.919,0.136      c-0.32,0.026-0.641,0.055-0.96,0.085c-0.616,0.058-1.229,0.122-1.843,0.191c-0.279,0.032-0.56,0.062-0.839,0.096      c-1.775,0.219-3.535,0.489-5.277,0.809c-0.228,0.042-0.455,0.087-0.683,0.131c-0.672,0.128-1.342,0.265-2.008,0.408      c-0.23,0.049-0.461,0.099-0.691,0.15c-0.764,0.17-1.523,0.35-2.279,0.54c-0.08,0.02-0.16,0.037-0.24,0.057v0.001      c-15.633,3.972-29.638,12.016-40.826,22.935l-0.004-0.003c-0.106,0.104-0.209,0.21-0.314,0.314      c-0.305,0.301-0.608,0.603-0.909,0.908c-0.116,0.117-0.235,0.231-0.351,0.35l0.005,0.004      c-15.91,16.304-25.718,38.589-25.718,63.169C265.928,165.42,267.712,175.471,270.983,184.824z M335.015,79.474l2.735,10.207      c6.157-1.756,12.663-2.678,19.393-2.603c6.201,0.069,12.193,0.983,17.884,2.605l2.735-10.209      c12.686,3.598,24.069,10.305,33.274,19.255l-7.458,7.458c8.965,8.679,15.547,19.791,18.664,32.269l10.213-2.737      c1.558,6.157,2.393,12.598,2.393,19.231c0,6.634-0.835,13.076-2.393,19.232l-10.228-2.741      c-3.12,12.499-9.688,23.615-18.642,32.28l7.45,7.45c-9.206,8.95-20.589,15.657-33.274,19.255l-2.735-10.207      c-6.157,1.756-12.663,2.677-19.394,2.603c-6.201-0.069-12.193-0.983-17.883-2.605l-2.736,10.209      c-12.686-3.598-24.069-10.305-33.275-19.255l7.459-7.458c-8.965-8.679-15.547-19.791-18.663-32.268l-10.214,2.737      c-1.558-6.157-2.393-12.598-2.393-19.232c0-6.634,0.835-13.075,2.393-19.232l10.228,2.741      c3.12-12.499,9.688-23.614,18.642-32.28l-7.45-7.45C310.944,89.779,322.328,83.072,335.015,79.474z"
             fill-rule="evenodd"
             id="path32"
             style="fill:#ffffff" /></g></g><g
         id="g40"
         style="fill:#ffffff"><path
           clip-rule="evenodd"
           d="M356.879,193.716c9.794-14.714,17.102-20.604,28.742-32.895     c4.5-4.746,8.268-10.708,8.268-17.449c0-10.242-8.395-18.61-18.674-18.61c-8.99,0-16.525,6.401-18.271,14.852     c-1.766-8.45-9.311-14.852-18.3-14.852c-10.279,0-18.675,8.368-18.675,18.61c0,6.337,3.76,13.443,7.792,17.449     C339.951,172.911,347.313,180.255,356.879,193.716z"
           fill-rule="evenodd"
           id="path38"
           style="fill:#ffffff" /></g></g></g></svg>
